inDegrees=yes
name=ik_Shooting_orientations
DataType=double
version=3
OpenSimVersion=4.3-2021-08-27-4bc7ad9
endheader
time	pelvis_tilt	pelvis_list	pelvis_rotation	pelvis_tx	pelvis_ty	pelvis_tz	hip_flexion_r	hip_adduction_r	hip_rotation_r	knee_angle_r	knee_angle_r_beta	ankle_angle_r	subtalar_angle_r	mtp_angle_r	hip_flexion_l	hip_adduction_l	hip_rotation_l	knee_angle_l	knee_angle_l_beta	ankle_angle_l	subtalar_angle_l	mtp_angle_l	lumbar_extension	lumbar_bending	lumbar_rotation	arm_flex_r	arm_add_r	arm_rot_r	elbow_flex_r	pro_sup_r	wrist_flex_r	wrist_dev_r	arm_flex_l	arm_add_l	arm_rot_l	elbow_flex_l	pro_sup_l	wrist_flex_l	wrist_dev_l
5	5.891220194479541	4.463030990267762	63.1173936259971	0	0.9399999999999999	0	13.89257799461747	-5.71413376620025	0	26.96867272046083	0.4706921338648178	-3.22381999870993	0	0	13.89257799461747	-5.71413376620025	0	26.96867272046083	0.4706921338648178	-3.22381999870993	0	0	-5.465901401581792	1.024537386512068	-0.53724860723378	11.81065900317438	18.85828418403847	-71.69727639660009	149.9622290868535	27.67070313078064	0	0	0	-2.544072378126112	0	29.83633381118797	27.67070313078064	0	0
5.01	5.892916422462765	4.494867487389782	63.12244848318772	0	0.9399999999999999	0	14.53094067650339	-5.924105068461391	0	27.69258859060397	0.4833268493062553	-3.329802430215381	0	0	14.53094067650339	-5.924105068461391	0	27.69258859060397	0.4833268493062553	-3.329802430215381	0	0	-5.488194468225624	0.9960612028700282	-0.5449204538355028	28.79279722849752	-7.285900674257864	-76.2171099477372	149.9964988721865	28.43401065552164	0	0	0	-2.680460940199886	0	30.89696134972252	28.43401065552164	0	0
5.02	5.911825981034716	4.521612564556868	63.12145392922763	0	0.9399999999999999	0	15.06784924746342	-6.095277308051792	0	28.29643685840445	0.4938659897618382	-3.415164141345997	0	0	15.06784924746342	-6.095277308051792	0	28.29643685840445	0.4938659897618382	-3.415164141345997	0	0	-5.529275001389386	0.9943880242606082	-0.5452117706005226	54.45220075764328	-30.66026556837626	-56.93470163675289	149.9984281198647	29.05593084762602	0	0	0	-2.797302628338219	0	31.77744313227888	29.05593084762602	0	0
5.03	5.92931786733924	4.540377017004933	63.12403610954215	0	0.9399999999999999	0	15.57532924940803	-6.262404159463514	0	28.84772102705896	0.503487713618979	-3.498985325165625	0	0	15.57532924940803	-6.262404159463514	0	28.84772102705896	0.503487713618979	-3.498985325165625	0	0	-5.273853278788285	0.8413912562351394	-0.5590230657706654	89.54311130642583	-30.13009912527372	-18.01200924685511	149.9989795725586	29.66268443513236	0	0	0	-2.903852820798442	0	32.6225179407168	29.66268443513236	0	0
5.04	5.931918502835485	4.534525279578548	63.13752005813111	0	0.9399999999999999	0	16.01365396856413	-6.398162121048516	0	29.32785422246947	0.5118676187270137	-3.565611618018031	0	0	16.01365396856413	-6.398162121048516	0	29.32785422246947	0.5118676187270137	-3.565611618018031	0	0	3.242516245561911	-2.190438227882828	-0.4710873052300454	89.98645751549091	-19.36782236053841	9.733586650175047	149.9991148402152	30.15613581535347	0	0	0	-2.999713493800928	0	33.33493671076999	30.15613581535347	0	0
5.05	5.908761137891399	4.558095542654125	63.13133738250714	0	0.9399999999999999	0	16.29169396951231	-6.481136635355496	0	29.63398887072951	0.5172106762935863	-3.6058410055335	0	0	16.29169396951231	-6.481136635355496	0	29.63398887072951	0.5172106762935863	-3.6058410055335	0	0	3.555264736313504	-4.127956304723008	-0.2926585368445461	89.98690429154132	-28.67837360295548	23.42947987095541	149.9989690750942	30.45820872102737	0	0	0	-3.062131938412193	0	33.78059361572673	30.45820872102737	0	0
5.06	5.916728831544848	4.569855057547537	63.12990971337732	0	0.9399999999999999	0	16.51657390344116	-6.544549924804272	0	29.8887176879752	0.5216565328542344	-3.636078593707828	0	0	16.51657390344116	-6.544549924804272	0	29.8887176879752	0.5216565328542344	-3.636078593707828	0	0	3.337628421237948	-8.232782074087227	0.01051672876858941	89.98660686465539	-45.61677837600578	24.29952962428307	149.9988495955182	30.68942948596356	0	0	0	-3.114896952300043	0	34.13289029647792	30.68942948596356	0	0
5.07	5.911521117138535	4.592644266770443	63.14488371139507	0	0.9399999999999999	0	16.80400960205129	-6.628473588209999	0	30.20287382217037	0.5271395917612773	-3.676387574051902	0	0	16.80400960205129	-6.628473588209999	0	30.20287382217037	0.5271395917612773	-3.676387574051902	0	0	1.130427737415065	-11.89308606914562	0.0673423333542686	89.98225602949505	-62.21316870142456	37.65610279508495	149.9982671195727	30.99536803591154	0	0	0	-3.180069956900466	0	34.59041531887064	30.99536803591154	0	0
5.08	5.952459466664817	4.627780632448791	63.14331563478535	0	0.9399999999999999	0	17.53026241496411	-6.843097316366368	0	31.02473143959907	0.541483713168004	-3.779924179824475	0	0	17.53026241496411	-6.843097316366368	0	31.02473143959907	0.541483713168004	-3.779924179824475	0	0	-3.643736184122085	-1.554474683813	-0.5600400375571066	89.9393249224992	-51.38070444489355	60.75474922998065	149.9968476438465	31.77214360733894	0	0	0	-3.346400758256729	0	35.73837440587609	31.77214360733894	0	0
5.09	5.971297408406584	4.647134934346812	63.14129848960913	0	0.9399999999999999	0	18.84860738962321	-7.212751328704005	0	32.45518084533312	0.5664497650812594	-3.953391811183506	0	0	18.84860738962321	-7.212751328704005	0	32.45518084533312	0.5664497650812594	-3.953391811183506	0	0	-5.593901834567586	0.9264713078492447	-0.5627988776202163	69.31382686549294	-58.11662402471289	65.69890835748502	149.9832469139684	33.1208782122413	0	0	0	-3.649778820620869	0	37.80298207172527	33.1208782122413	0	0
